<svg xmlns="http://www.w3.org/2000/svg" width="256" height="256" viewBox="0 0 256 256" fill="none">
  <defs>
    <linearGradient id="bg" x1="40" y1="20" x2="224" y2="236" gradientUnits="userSpaceOnUse">
      <stop stop-color="#F59E0B"/>
      <stop offset="1" stop-color="#111827"/>
    </linearGradient>
    <linearGradient id="shine" x1="52" y1="44" x2="210" y2="210" gradientUnits="userSpaceOnUse">
      <stop stop-color="white" stop-opacity="0.7"/>
      <stop offset="0.55" stop-color="white" stop-opacity="0"/>
    </linearGradient>
    <filter id="shadow" x="-30%" y="-30%" width="160%" height="160%" color-interpolation-filters="sRGB">
      <feDropShadow dx="0" dy="18" stdDeviation="18" flood-color="#000000" flood-opacity="0.45"/>
    </filter>
  </defs>
  <g filter="url(#shadow)">
    <rect x="28" y="28" width="200" height="200" rx="44" fill="url(#bg)"/>
    <rect x="28" y="28" width="200" height="200" rx="44" fill="url(#shine)" opacity="0.55"/>
    <path d="M70 190 112 66c2-6 7-10 13-10h6c6 0 11 4 13 10l42 124c3 8-1 16-9 18-7 2-14-2-16-9l-9-28H94l-9 28c-2 7-9 11-16 9-8-2-12-10-9-18Zm31-45h46l-23-70-23 70Z" fill="#FDE68A" opacity="0.18"/>
    <text x="78" y="162" font-family="Inter, system-ui, -apple-system, Segoe UI, Roboto, Arial" font-weight="900" font-size="92" fill="#FFF7ED" letter-spacing="-2">Ai</text>
  </g>
</svg>

