<svg xmlns="http://www.w3.org/2000/svg" width="256" height="256" viewBox="0 0 256 256" fill="none">
  <defs>
    <linearGradient id="bg" x1="40" y1="20" x2="224" y2="236" gradientUnits="userSpaceOnUse">
      <stop stop-color="#10B981"/>
      <stop offset="1" stop-color="#07151A"/>
    </linearGradient>
    <linearGradient id="shine" x1="56" y1="48" x2="208" y2="200" gradientUnits="userSpaceOnUse">
      <stop stop-color="white" stop-opacity="0.62"/>
      <stop offset="0.58" stop-color="white" stop-opacity="0"/>
    </linearGradient>
    <filter id="shadow" x="-30%" y="-30%" width="160%" height="160%" color-interpolation-filters="sRGB">
      <feDropShadow dx="0" dy="18" stdDeviation="18" flood-color="#000000" flood-opacity="0.45"/>
    </filter>
  </defs>
  <g filter="url(#shadow)">
    <rect x="28" y="28" width="200" height="200" rx="44" fill="url(#bg)"/>
    <rect x="28" y="28" width="200" height="200" rx="44" fill="url(#shine)" opacity="0.55"/>
    <path d="M176 92c-14-18-39-26-62-19-24 8-40 31-40 56 0 28 20 52 48 58 22 5 45-4 57-21 4-6 12-7 18-3 6 4 7 12 3 18-18 27-54 40-88 32-40-9-70-44-70-84 0-37 24-70 60-82 34-11 71 1 92 28 5 6 4 14-2 18-6 5-14 4-18-1Z" fill="#BBF7D0" opacity="0.22"/>
    <text x="56" y="162" font-family="Inter, system-ui, -apple-system, Segoe UI, Roboto, Arial" font-weight="900" font-size="82" fill="#ECFDF5" letter-spacing="-2">C</text>
    <text x="118" y="162" font-family="Inter, system-ui, -apple-system, Segoe UI, Roboto, Arial" font-weight="900" font-size="52" fill="#ECFDF5" opacity="0.85" letter-spacing="-1">DR</text>
  </g>
</svg>

