<svg xmlns="http://www.w3.org/2000/svg" width="256" height="256" viewBox="0 0 256 256" fill="none">
  <defs>
    <linearGradient id="bg" x1="40" y1="20" x2="224" y2="236" gradientUnits="userSpaceOnUse">
      <stop stop-color="#A855F7"/>
      <stop offset="1" stop-color="#0B1020"/>
    </linearGradient>
    <linearGradient id="shine" x1="54" y1="46" x2="210" y2="210" gradientUnits="userSpaceOnUse">
      <stop stop-color="white" stop-opacity="0.68"/>
      <stop offset="0.55" stop-color="white" stop-opacity="0"/>
    </linearGradient>
    <filter id="shadow" x="-30%" y="-30%" width="160%" height="160%" color-interpolation-filters="sRGB">
      <feDropShadow dx="0" dy="18" stdDeviation="18" flood-color="#000000" flood-opacity="0.45"/>
    </filter>
  </defs>
  <g filter="url(#shadow)">
    <rect x="28" y="28" width="200" height="200" rx="44" fill="url(#bg)"/>
    <rect x="28" y="28" width="200" height="200" rx="44" fill="url(#shine)" opacity="0.55"/>
    <g opacity="0.9">
      <path d="M116 82c0-12 10-22 22-22h26c12 0 22 10 22 22s-10 22-22 22h-26c-12 0-22-10-22-22Z" fill="#FF4D4D"/>
      <path d="M70 126c0-12 10-22 22-22h46c12 0 22 10 22 22s-10 22-22 22H92c-12 0-22-10-22-22Z" fill="#22C55E"/>
      <path d="M116 170c0-12 10-22 22-22h26c12 0 22 10 22 22s-10 22-22 22h-26c-12 0-22-10-22-22Z" fill="#60A5FA"/>
    </g>
    <text x="64" y="214" font-family="Inter, system-ui, -apple-system, Segoe UI, Roboto, Arial" font-weight="900" font-size="34" fill="#F5F3FF" letter-spacing="2">FIGMA</text>
  </g>
</svg>

