<svg xmlns="http://www.w3.org/2000/svg" width="256" height="256" viewBox="0 0 256 256" fill="none">
  <defs>
    <linearGradient id="bg" x1="44" y1="30" x2="222" y2="226" gradientUnits="userSpaceOnUse">
      <stop stop-color="#60A5FA"/>
      <stop offset="0.5" stop-color="#A78BFA"/>
      <stop offset="1" stop-color="#0B1020"/>
    </linearGradient>
    <linearGradient id="shine" x1="54" y1="44" x2="210" y2="210" gradientUnits="userSpaceOnUse">
      <stop stop-color="white" stop-opacity="0.62"/>
      <stop offset="0.55" stop-color="white" stop-opacity="0"/>
    </linearGradient>
    <filter id="shadow" x="-30%" y="-30%" width="160%" height="160%" color-interpolation-filters="sRGB">
      <feDropShadow dx="0" dy="18" stdDeviation="18" flood-color="#000000" flood-opacity="0.45"/>
    </filter>
  </defs>
  <g filter="url(#shadow)">
    <rect x="28" y="28" width="200" height="200" rx="44" fill="url(#bg)"/>
    <rect x="28" y="28" width="200" height="200" rx="44" fill="url(#shine)" opacity="0.55"/>
    <path d="M128 62l10 34 34 10-34 10-10 34-10-34-34-10 34-10 10-34Z" fill="white" opacity="0.9"/>
    <path d="M176 124l7 24 24 7-24 7-7 24-7-24-24-7 24-7 7-24Z" fill="white" opacity="0.55"/>
    <text x="56" y="214" font-family="Inter, system-ui, -apple-system, Segoe UI, Roboto, Arial" font-weight="900" font-size="32" fill="#EEF2FF" letter-spacing="2">GEMINI</text>
  </g>
</svg>

