<svg xmlns="http://www.w3.org/2000/svg" width="256" height="256" viewBox="0 0 256 256" fill="none">
  <defs>
    <linearGradient id="bg" x1="40" y1="20" x2="224" y2="236" gradientUnits="userSpaceOnUse">
      <stop stop-color="#1D4ED8"/>
      <stop offset="1" stop-color="#0B1020"/>
    </linearGradient>
    <linearGradient id="shine" x1="56" y1="48" x2="208" y2="200" gradientUnits="userSpaceOnUse">
      <stop stop-color="white" stop-opacity="0.65"/>
      <stop offset="0.6" stop-color="white" stop-opacity="0"/>
    </linearGradient>
    <filter id="shadow" x="-30%" y="-30%" width="160%" height="160%" color-interpolation-filters="sRGB">
      <feDropShadow dx="0" dy="18" stdDeviation="18" flood-color="#000000" flood-opacity="0.45"/>
    </filter>
  </defs>
  <g filter="url(#shadow)">
    <rect x="28" y="28" width="200" height="200" rx="44" fill="url(#bg)"/>
    <rect x="28" y="28" width="200" height="200" rx="44" fill="url(#shine)" opacity="0.55"/>
    <path d="M60 66c32-14 70-18 108-6 16 5 32 14 34 33 2 21-11 35-29 44-26 12-58 11-86 6v52c0 8-6 14-14 14s-13-6-13-14V78c0-6 3-10 9-12Zm18 26v53c23 5 49 5 70-3 10-4 17-10 16-22-1-12-10-18-21-21-20-5-43-3-65-7Z" fill="#93C5FD" opacity="0.22"/>
    <text x="72" y="162" font-family="Inter, system-ui, -apple-system, Segoe UI, Roboto, Arial" font-weight="900" font-size="92" fill="#E0F2FE" letter-spacing="-2">Ps</text>
  </g>
</svg>

